<svg width="225" height="50" viewBox="0 0 225 50" fill="none" xmlns="http://www.w3.org/2000/svg">
<path d="M2.28278 13.0869C-0.170263 14.1436 -0.736349 18.32 1.02481 22.421C2.78597 26.522 6.19506 29.0002 8.6481 27.9435C11.1011 26.8868 11.6672 22.7103 9.90607 18.6093C8.14491 14.5084 4.73582 12.0302 2.28278 13.0869Z" fill="#00A7C7"/>
<path d="M17.6654 16.1066C20.1184 15.7418 21.5902 12.0056 20.9487 7.75367C20.3071 3.50174 17.8037 0.369407 15.3633 0.734219C12.9102 1.09903 11.4384 4.83518 12.08 9.08712C12.7215 13.3265 15.2249 16.4714 17.6654 16.1066Z" fill="#00A7C7"/>
<path d="M30.8995 15.4519C33.3651 15.7286 35.7552 12.5082 36.2458 8.24371C36.7364 3.9792 35.1388 0.293335 32.6732 0.0165812C30.2076 -0.260172 27.8174 2.96024 27.3268 7.22476C26.8362 11.4893 28.4338 15.1751 30.8995 15.4519Z" fill="#00A7C7"/>
<path d="M45.5272 11.754C43.1748 10.9741 40.1682 13.641 38.8222 17.7168C37.4762 21.7926 38.2939 25.7175 40.6463 26.4974C42.9987 27.2774 46.0052 24.6104 47.3512 20.5346C48.6972 16.4588 47.8796 12.534 45.5272 11.754Z" fill="#00A7C7"/>
<path d="M24.2704 49.4176C31.0859 49.4176 36.611 42.8506 36.611 34.7497C36.611 26.6488 31.0859 20.0818 24.2704 20.0818C17.4548 20.0818 11.9297 26.6488 11.9297 34.7497C11.9297 42.8506 17.4548 49.4176 24.2704 49.4176Z" fill="#00A7C7"/>
<path d="M72.544 37.1568C71.4987 37.1568 70.4427 37.0075 69.376 36.7088C68.3093 36.3888 67.2853 35.9195 66.304 35.3008C65.3227 34.6608 64.448 33.8822 63.68 32.9648C62.9333 32.0262 62.336 30.9488 61.888 29.7328C61.44 28.4955 61.216 27.1302 61.216 25.6368C61.216 24.1648 61.44 22.8422 61.888 21.6688C62.336 20.4742 62.9333 19.4288 63.68 18.5328C64.448 17.6368 65.312 16.8902 66.272 16.2928C67.2533 15.6955 68.2773 15.2475 69.344 14.9488C70.432 14.6288 71.5093 14.4582 72.576 14.4368C73.664 14.4368 74.6027 14.5542 75.392 14.7888C76.1813 15.0235 76.8213 15.2795 77.312 15.5568C77.8027 15.8128 78.1333 15.9942 78.304 16.1008C78.6453 16.3142 78.9653 16.5595 79.264 16.8368C79.584 17.0928 79.7547 17.4128 79.776 17.7968C79.7973 18.0528 79.7653 18.2875 79.68 18.5008C79.5947 18.6928 79.4773 18.8955 79.328 19.1088C79.072 19.4715 78.816 19.7382 78.56 19.9088C78.304 20.0795 78.048 20.1648 77.792 20.1648C77.5573 20.1648 77.3333 20.1008 77.12 19.9728C76.928 19.8448 76.6827 19.6848 76.384 19.4928C76.256 19.4075 76.0213 19.2795 75.68 19.1088C75.36 18.9168 74.9227 18.7462 74.368 18.5968C73.8347 18.4475 73.184 18.3728 72.416 18.3728C71.4987 18.3728 70.6027 18.5328 69.728 18.8528C68.8533 19.1728 68.064 19.6528 67.36 20.2928C66.6773 20.9115 66.1333 21.6902 65.728 22.6288C65.3227 23.5462 65.12 24.6022 65.12 25.7968C65.12 26.9915 65.3227 28.0582 65.728 28.9968C66.1333 29.9142 66.6773 30.6928 67.36 31.3328C68.064 31.9515 68.8533 32.4208 69.728 32.7408C70.6027 33.0608 71.4987 33.2208 72.416 33.2208C73.1413 33.2208 73.76 33.1568 74.272 33.0288C74.8053 32.8795 75.2533 32.7088 75.616 32.5168C76 32.3035 76.288 32.1435 76.48 32.0368C76.7147 31.8875 76.9387 31.7488 77.152 31.6208C77.3653 31.4928 77.5893 31.4288 77.824 31.4288C78.08 31.4288 78.3253 31.5142 78.56 31.6848C78.816 31.8555 79.0613 32.1328 79.296 32.5168C79.4453 32.7515 79.5627 32.9755 79.648 33.1888C79.7333 33.4022 79.7653 33.6262 79.744 33.8608C79.7227 34.2448 79.552 34.5755 79.232 34.8528C78.9333 35.1088 78.6133 35.3328 78.272 35.5248C78.1013 35.6315 77.7707 35.8235 77.28 36.1008C76.8107 36.3568 76.1813 36.5915 75.392 36.8048C74.6027 37.0395 73.6533 37.1568 72.544 37.1568ZM95.1278 36.9648C94.5091 36.9648 94.0504 36.8475 93.7518 36.6128C93.4531 36.3782 93.3038 36.0582 93.3038 35.6528L93.5278 34.5968C93.3571 34.8742 93.0691 35.2048 92.6638 35.5888C92.2584 35.9515 91.7251 36.2822 91.0638 36.5808C90.4024 36.8582 89.6024 36.9968 88.6638 36.9968C87.6611 36.9968 86.7118 36.7942 85.8158 36.3888C84.9411 35.9622 84.1624 35.3862 83.4798 34.6608C82.8184 33.9142 82.2851 33.0715 81.8798 32.1328C81.4958 31.1728 81.3038 30.1488 81.3038 29.0608C81.3038 28.0155 81.4958 27.0342 81.8798 26.1168C82.2851 25.1782 82.8291 24.3462 83.5118 23.6208C84.1944 22.8955 84.9731 22.3302 85.8478 21.9248C86.7438 21.4982 87.6824 21.2848 88.6638 21.2848C89.5384 21.2848 90.2744 21.4022 90.8718 21.6368C91.4904 21.8715 92.0131 22.1702 92.4398 22.5328C92.8664 22.8742 93.2184 23.2368 93.4958 23.6208L93.3038 22.6928C93.3038 22.2235 93.4531 21.8715 93.7518 21.6368C94.0504 21.3808 94.5198 21.2528 95.1598 21.2528C95.7571 21.2528 96.1838 21.3488 96.4398 21.5408C96.6958 21.7115 96.8558 21.9568 96.9198 22.2768C96.9838 22.5755 97.0158 22.9168 97.0158 23.3008V35.0128C97.0158 35.3755 96.9838 35.7062 96.9198 36.0048C96.8558 36.3035 96.6851 36.5382 96.4078 36.7088C96.1518 36.8795 95.7251 36.9648 95.1278 36.9648ZM89.2398 33.2528C89.9651 33.2528 90.6158 33.0715 91.1918 32.7088C91.7678 32.3462 92.2264 31.8555 92.5678 31.2368C92.9304 30.5968 93.1118 29.8928 93.1118 29.1248C93.1118 28.2928 92.9304 27.5675 92.5678 26.9488C92.2051 26.3302 91.7251 25.8502 91.1278 25.5088C90.5518 25.1462 89.9011 24.9648 89.1758 24.9648C88.3864 24.9648 87.6824 25.1568 87.0638 25.5408C86.4451 25.9035 85.9544 26.4048 85.5918 27.0448C85.2504 27.6635 85.0798 28.3675 85.0798 29.1568C85.0798 29.9248 85.2611 30.6182 85.6238 31.2368C85.9864 31.8555 86.4771 32.3462 87.0958 32.7088C87.7358 33.0715 88.4504 33.2528 89.2398 33.2528ZM102.115 37.0288C101.539 37.0288 101.112 36.9328 100.835 36.7408C100.579 36.5702 100.419 36.3355 100.355 36.0368C100.291 35.7382 100.259 35.4075 100.259 35.0448V23.1728C100.259 22.7888 100.291 22.4582 100.355 22.1808C100.419 21.8822 100.579 21.6582 100.835 21.5088C101.112 21.3382 101.549 21.2528 102.147 21.2528C102.723 21.2528 103.139 21.3275 103.395 21.4768C103.672 21.6262 103.843 21.8182 103.907 22.0528C103.992 22.2662 104.035 22.4795 104.035 22.6928L103.779 23.2688C103.885 23.0982 104.035 22.8955 104.227 22.6608C104.419 22.4048 104.675 22.1595 104.995 21.9248C105.315 21.6688 105.699 21.4662 106.147 21.3168C106.595 21.1462 107.128 21.0608 107.747 21.0608C108.003 21.0608 108.269 21.0928 108.547 21.1568C108.845 21.1995 109.133 21.2742 109.411 21.3808C109.709 21.4662 109.976 21.5835 110.211 21.7328C110.445 21.8822 110.627 22.0635 110.755 22.2768C110.883 22.4688 110.947 22.6928 110.947 22.9488C110.947 23.6315 110.776 24.2075 110.435 24.6768C110.093 25.1462 109.688 25.3808 109.219 25.3808C108.899 25.3808 108.664 25.3488 108.515 25.2848C108.365 25.2208 108.237 25.1462 108.131 25.0608C108.045 24.9755 107.907 24.9008 107.715 24.8368C107.544 24.7728 107.267 24.7408 106.883 24.7408C106.563 24.7408 106.232 24.7942 105.891 24.9008C105.571 25.0075 105.272 25.1675 104.995 25.3808C104.717 25.5942 104.493 25.8715 104.323 26.2128C104.152 26.5328 104.067 26.9062 104.067 27.3328V35.1088C104.067 35.4715 104.035 35.8022 103.971 36.1008C103.907 36.3782 103.736 36.6022 103.459 36.7728C103.181 36.9435 102.733 37.0288 102.115 37.0288ZM120.155 37.2208C118.768 37.2208 117.552 36.9968 116.507 36.5488C115.483 36.1008 114.619 35.4928 113.915 34.7248C113.232 33.9355 112.71 33.0608 112.347 32.1008C112.006 31.1195 111.835 30.1062 111.835 29.0608C111.835 27.5248 112.187 26.1595 112.891 24.9648C113.595 23.7702 114.566 22.8315 115.803 22.1488C117.062 21.4662 118.502 21.1248 120.123 21.1248C121.275 21.1248 122.288 21.3062 123.163 21.6688C124.038 22.0315 124.763 22.5115 125.339 23.1088C125.936 23.6848 126.384 24.3248 126.683 25.0288C127.003 25.7328 127.163 26.4155 127.163 27.0768C127.163 28.2075 126.886 29.0288 126.331 29.5408C125.798 30.0528 125.126 30.3088 124.315 30.3088H115.867C115.888 31.0342 116.112 31.6635 116.539 32.1968C116.987 32.7302 117.542 33.1462 118.203 33.4448C118.886 33.7222 119.579 33.8608 120.283 33.8608C120.816 33.8608 121.286 33.8288 121.691 33.7648C122.118 33.7008 122.48 33.6262 122.779 33.5408C123.078 33.4342 123.334 33.3275 123.547 33.2208C123.782 33.1142 123.995 33.0182 124.187 32.9328C124.379 32.8475 124.56 32.7942 124.731 32.7728C124.966 32.7515 125.2 32.8048 125.435 32.9328C125.67 33.0608 125.862 33.2848 126.011 33.6048C126.139 33.8182 126.224 34.0208 126.267 34.2128C126.331 34.3835 126.363 34.5542 126.363 34.7248C126.363 35.1515 126.107 35.5568 125.595 35.9408C125.083 36.3035 124.358 36.6022 123.419 36.8368C122.502 37.0928 121.414 37.2208 120.155 37.2208ZM115.867 28.0368H122.427C122.79 28.0368 123.067 27.9835 123.259 27.8768C123.451 27.7488 123.547 27.4928 123.547 27.1088C123.547 26.6182 123.398 26.1808 123.099 25.7968C122.8 25.3915 122.395 25.0822 121.883 24.8688C121.371 24.6342 120.774 24.5168 120.091 24.5168C119.302 24.5168 118.587 24.6768 117.947 24.9968C117.307 25.2955 116.795 25.7115 116.411 26.2448C116.048 26.7782 115.867 27.3755 115.867 28.0368ZM135.293 37.0288C134.504 37.0288 133.8 36.9755 133.181 36.8688C132.584 36.7622 132.061 36.5808 131.613 36.3248C131.186 36.0688 130.834 35.7275 130.557 35.3008C130.28 34.8528 130.066 34.3088 129.917 33.6688C129.789 33.0288 129.725 32.2608 129.725 31.3648V15.9408C129.725 15.5782 129.757 15.2582 129.821 14.9808C129.906 14.6822 130.077 14.4475 130.333 14.2768C130.61 14.0848 131.048 13.9888 131.645 13.9888C132.242 13.9888 132.669 14.0742 132.925 14.2448C133.202 14.4155 133.373 14.6502 133.437 14.9488C133.522 15.2262 133.565 15.5462 133.565 15.9088V31.2048C133.565 31.6102 133.586 31.9515 133.629 32.2288C133.693 32.4848 133.789 32.6982 133.917 32.8688C134.066 33.0182 134.248 33.1248 134.461 33.1888C134.696 33.2528 134.973 33.2848 135.293 33.2848C135.57 33.2848 135.816 33.3168 136.029 33.3808C136.264 33.4448 136.445 33.6048 136.573 33.8608C136.722 34.1168 136.797 34.5328 136.797 35.1088C136.797 35.7062 136.722 36.1435 136.573 36.4208C136.445 36.6982 136.264 36.8688 136.029 36.9328C135.794 36.9968 135.549 37.0288 135.293 37.0288ZM141.476 43.3328C140.793 43.0342 140.398 42.6928 140.292 42.3088C140.185 41.9462 140.281 41.4555 140.58 40.8368L148.836 22.3408C149.134 21.6582 149.454 21.2528 149.796 21.1248C150.137 20.9755 150.66 21.0502 151.364 21.3488C152.025 21.6475 152.409 21.9782 152.516 22.3408C152.644 22.7035 152.569 23.1942 152.292 23.8128L143.972 42.4048C143.694 43.0875 143.385 43.4822 143.044 43.5888C142.702 43.7168 142.18 43.6315 141.476 43.3328ZM144.452 35.4928L137.06 24.1328C136.676 23.5568 136.516 23.0768 136.58 22.6928C136.665 22.3088 137.006 21.9355 137.604 21.5728C138.265 21.1675 138.777 21.0075 139.14 21.0928C139.524 21.1782 139.908 21.5195 140.292 22.1168L146.148 31.2368L144.452 35.4928ZM164.932 36.9968C164.335 36.9968 163.898 36.9115 163.62 36.7408C163.343 36.5702 163.172 36.3355 163.108 36.0368C163.044 35.7168 163.012 35.3862 163.012 35.0448V16.5808C163.012 16.2395 163.044 15.9302 163.108 15.6528C163.194 15.3542 163.375 15.1195 163.652 14.9488C163.93 14.7568 164.367 14.6608 164.964 14.6608H171.748C172.687 14.6608 173.604 14.8208 174.5 15.1408C175.396 15.4608 176.196 15.9408 176.9 16.5808C177.626 17.2208 178.191 18.0102 178.596 18.9488C179.023 19.8875 179.236 20.9862 179.236 22.2448C179.236 23.4822 179.023 24.5702 178.596 25.5088C178.191 26.4262 177.626 27.2048 176.9 27.8448C176.175 28.4848 175.364 28.9648 174.468 29.2848C173.594 29.6048 172.676 29.7648 171.716 29.7648H166.884V35.0768C166.884 35.4182 166.842 35.7382 166.756 36.0368C166.692 36.3355 166.522 36.5702 166.244 36.7408C165.988 36.9115 165.551 36.9968 164.932 36.9968ZM166.884 25.8608H171.748C172.41 25.8608 173.007 25.7328 173.54 25.4768C174.095 25.1995 174.543 24.7942 174.884 24.2608C175.226 23.7062 175.396 23.0128 175.396 22.1808C175.396 21.4342 175.236 20.7942 174.916 20.2608C174.618 19.7062 174.191 19.2795 173.636 18.9808C173.103 18.6822 172.463 18.5328 171.716 18.5328H166.884V25.8608ZM189.593 37.2208C188.206 37.2208 186.99 36.9968 185.945 36.5488C184.921 36.1008 184.057 35.4928 183.353 34.7248C182.67 33.9355 182.147 33.0608 181.785 32.1008C181.443 31.1195 181.273 30.1062 181.273 29.0608C181.273 27.5248 181.625 26.1595 182.329 24.9648C183.033 23.7702 184.003 22.8315 185.241 22.1488C186.499 21.4662 187.939 21.1248 189.561 21.1248C190.713 21.1248 191.726 21.3062 192.601 21.6688C193.475 22.0315 194.201 22.5115 194.777 23.1088C195.374 23.6848 195.822 24.3248 196.121 25.0288C196.441 25.7328 196.601 26.4155 196.601 27.0768C196.601 28.2075 196.323 29.0288 195.769 29.5408C195.235 30.0528 194.563 30.3088 193.753 30.3088H185.305C185.326 31.0342 185.55 31.6635 185.977 32.1968C186.425 32.7302 186.979 33.1462 187.641 33.4448C188.323 33.7222 189.017 33.8608 189.72 33.8608C190.254 33.8608 190.723 33.8288 191.129 33.7648C191.555 33.7008 191.918 33.6262 192.217 33.5408C192.515 33.4342 192.771 33.3275 192.985 33.2208C193.219 33.1142 193.433 33.0182 193.625 32.9328C193.817 32.8475 193.998 32.7942 194.169 32.7728C194.403 32.7515 194.638 32.8048 194.873 32.9328C195.107 33.0608 195.299 33.2848 195.449 33.6048C195.577 33.8182 195.662 34.0208 195.705 34.2128C195.769 34.3835 195.801 34.5542 195.801 34.7248C195.801 35.1515 195.545 35.5568 195.033 35.9408C194.521 36.3035 193.795 36.6022 192.857 36.8368C191.939 37.0928 190.851 37.2208 189.593 37.2208ZM185.305 28.0368H191.865C192.227 28.0368 192.505 27.9835 192.697 27.8768C192.889 27.7488 192.985 27.4928 192.985 27.1088C192.985 26.6182 192.835 26.1808 192.537 25.7968C192.238 25.3915 191.833 25.0822 191.321 24.8688C190.809 24.6342 190.211 24.5168 189.529 24.5168C188.739 24.5168 188.025 24.6768 187.385 24.9968C186.745 25.2955 186.233 25.7115 185.849 26.2448C185.486 26.7782 185.305 27.3755 185.305 28.0368ZM206.69 37.0288C205.645 37.0288 204.749 36.9222 204.002 36.7088C203.255 36.4955 202.647 36.1648 202.178 35.7168C201.709 35.2688 201.357 34.6928 201.122 33.9888C200.909 33.2635 200.802 32.4102 200.802 31.4288V17.8608C200.802 17.4768 200.834 17.1462 200.898 16.8688C200.983 16.5915 201.154 16.3782 201.41 16.2288C201.687 16.0582 202.114 15.9728 202.69 15.9728C203.287 15.9728 203.714 16.0582 203.97 16.2288C204.247 16.3995 204.418 16.6342 204.482 16.9328C204.567 17.2102 204.61 17.5195 204.61 17.8608V31.3008C204.61 31.7488 204.642 32.1115 204.706 32.3888C204.791 32.6662 204.909 32.8795 205.058 33.0288C205.229 33.1568 205.442 33.2528 205.698 33.3168C205.975 33.3595 206.306 33.3808 206.69 33.3808C207.095 33.3808 207.437 33.4128 207.714 33.4768C208.013 33.5408 208.237 33.7008 208.386 33.9568C208.535 34.1915 208.61 34.5862 208.61 35.1408C208.61 35.7382 208.514 36.1755 208.322 36.4528C208.151 36.7088 207.917 36.8688 207.618 36.9328C207.341 36.9968 207.031 37.0288 206.69 37.0288ZM199.49 21.5728L202.786 21.6048L207.202 21.4768C207.565 21.4768 207.885 21.5195 208.162 21.6048C208.461 21.6688 208.695 21.8395 208.866 22.1168C209.037 22.3728 209.122 22.7995 209.122 23.3968C209.122 23.9515 209.037 24.3675 208.866 24.6448C208.695 24.9222 208.471 25.1035 208.194 25.1888C207.917 25.2528 207.597 25.2848 207.234 25.2848L202.946 25.2208L199.394 25.2528C198.861 25.2315 198.487 25.0822 198.274 24.8048C198.082 24.5062 197.986 24.0262 197.986 23.3648C197.986 22.7462 198.103 22.2982 198.338 22.0208C198.594 21.7222 198.978 21.5728 199.49 21.5728ZM216.98 37.2208C216.425 37.2208 215.838 37.1568 215.22 37.0288C214.601 36.9222 214.004 36.7622 213.428 36.5488C212.852 36.3142 212.35 36.0475 211.924 35.7488C211.518 35.4288 211.262 35.0768 211.156 34.6928C211.07 34.4795 211.038 34.2768 211.06 34.0848C211.081 33.8715 211.145 33.6582 211.252 33.4448C211.358 33.2102 211.518 32.9755 211.732 32.7408C211.924 32.5062 212.116 32.3782 212.308 32.3568C212.521 32.3142 212.788 32.3782 213.108 32.5488C213.385 32.6555 213.684 32.7942 214.004 32.9648C214.345 33.1355 214.686 33.3062 215.028 33.4768C215.39 33.6475 215.753 33.7862 216.116 33.8928C216.5 33.9995 216.873 34.0528 217.236 34.0528C218.025 34.0528 218.654 33.9248 219.124 33.6688C219.593 33.3915 219.828 33.0075 219.828 32.5168C219.828 32.2395 219.753 31.9942 219.604 31.7808C219.454 31.5675 219.252 31.3968 218.996 31.2688C218.761 31.1195 218.473 30.9915 218.132 30.8848C217.812 30.7568 217.46 30.6502 217.076 30.5648C216.713 30.4582 216.329 30.3408 215.924 30.2128C215.39 30.0635 214.857 29.8822 214.324 29.6688C213.79 29.4555 213.31 29.1782 212.884 28.8368C212.478 28.4955 212.148 28.0688 211.892 27.5568C211.636 27.0448 211.508 26.4048 211.508 25.6368C211.508 24.6768 211.732 23.8662 212.18 23.2048C212.649 22.5222 213.321 21.9995 214.196 21.6368C215.07 21.2742 216.126 21.0928 217.364 21.0928C217.79 21.0928 218.196 21.1248 218.58 21.1888C218.985 21.2528 219.369 21.3488 219.732 21.4768C220.116 21.5835 220.478 21.7222 220.82 21.8928C221.182 22.0635 221.524 22.2555 221.844 22.4688C222.377 22.7675 222.654 23.1195 222.676 23.5248C222.697 23.9088 222.548 24.3248 222.228 24.7728C221.993 25.0715 221.758 25.2848 221.524 25.4128C221.289 25.5195 221.044 25.5195 220.788 25.4128C220.446 25.2422 220.073 25.0608 219.668 24.8688C219.284 24.6555 218.878 24.4742 218.452 24.3248C218.046 24.1755 217.62 24.1008 217.172 24.1008C216.745 24.1008 216.361 24.1648 216.02 24.2928C215.678 24.4208 215.422 24.6022 215.252 24.8368C215.081 25.0715 214.996 25.3488 214.996 25.6688C214.996 25.9675 215.081 26.2128 215.252 26.4048C215.422 26.5968 215.646 26.7568 215.924 26.8848C216.201 27.0128 216.532 27.1302 216.916 27.2368C217.3 27.3222 217.705 27.4075 218.132 27.4928C218.729 27.6208 219.337 27.7808 219.956 27.9728C220.574 28.1648 221.14 28.4315 221.652 28.7728C222.185 29.1142 222.612 29.5728 222.932 30.1488C223.252 30.7035 223.412 31.4288 223.412 32.3248C223.412 33.8822 222.836 35.0875 221.684 35.9408C220.553 36.7942 218.985 37.2208 216.98 37.2208Z" fill="#00A7C7"/>
</svg>
