<svg width="235" height="201" viewBox="0 0 235 201" fill="none" xmlns="http://www.w3.org/2000/svg">
<g clip-path="url(#clip0_10629_21210)">
<path d="M180.181 140.034C179.689 140.033 179.217 139.846 178.858 139.51C178.5 139.174 178.283 138.714 178.251 138.224L177.963 133.838C177.93 133.325 178.101 132.82 178.44 132.434C178.779 132.048 179.257 131.813 179.77 131.779L214.16 129.528C214.703 129.492 215.247 129.563 215.762 129.738C216.276 129.912 216.752 130.186 217.161 130.544C217.569 130.902 217.903 131.337 218.144 131.824C218.384 132.311 218.526 132.841 218.562 133.383C218.598 133.925 218.526 134.469 218.351 134.983C218.176 135.498 217.902 135.973 217.543 136.381C217.184 136.789 216.749 137.123 216.261 137.363C215.774 137.603 215.243 137.744 214.701 137.779L180.31 140.03C180.267 140.033 180.224 140.034 180.181 140.034Z" fill="#00A7C7"/>
<path d="M186.963 140.6C186.462 140.599 185.981 140.404 185.62 140.057C185.259 139.709 185.047 139.236 185.028 138.736L184.783 132.183C184.773 131.929 184.814 131.676 184.902 131.437C184.991 131.199 185.125 130.98 185.299 130.794C185.472 130.608 185.68 130.457 185.911 130.351C186.142 130.245 186.392 130.186 186.646 130.176L214.927 129.12C215.44 129.101 215.94 129.286 216.317 129.636C216.693 129.985 216.916 130.469 216.935 130.983L217.18 137.535C217.19 137.789 217.149 138.042 217.06 138.281C216.972 138.519 216.837 138.738 216.664 138.924C216.491 139.111 216.283 139.261 216.052 139.367C215.82 139.473 215.571 139.532 215.316 139.542L187.036 140.598C187.012 140.599 186.987 140.6 186.963 140.6Z" fill="#2F2E41"/>
<path d="M220.102 201H215.703C215.189 200.999 214.697 200.795 214.334 200.432C213.97 200.069 213.766 199.577 213.766 199.064V162.423C213.766 161.91 213.97 161.417 214.334 161.054C214.697 160.691 215.189 160.487 215.703 160.487H220.102C220.616 160.487 221.108 160.691 221.471 161.054C221.834 161.417 222.039 161.91 222.039 162.423V199.064C222.039 199.577 221.834 200.069 221.471 200.432C221.108 200.795 220.616 200.999 220.102 201Z" fill="#2F2E41"/>
<path d="M209.594 201H205.195C204.681 200.999 204.189 200.795 203.826 200.432C203.463 200.069 203.258 199.577 203.258 199.064V162.423C203.258 161.91 203.463 161.417 203.826 161.054C204.189 160.691 204.681 160.487 205.195 160.487H209.594C210.108 160.487 210.6 160.691 210.963 161.054C211.327 161.417 211.531 161.91 211.531 162.423V199.064C211.531 199.577 211.327 200.069 210.963 200.432C210.6 200.795 210.108 200.999 209.594 201Z" fill="#2F2E41"/>
<path d="M213.421 122.248C221.816 122.248 228.621 115.447 228.621 107.057C228.621 98.6672 221.816 91.866 213.421 91.866C205.026 91.866 198.221 98.6672 198.221 107.057C198.221 115.447 205.026 122.248 213.421 122.248Z" fill="#00A7C7"/>
<path d="M205.193 112.244C204.704 112.083 204.256 111.82 203.877 111.471C203.626 111.223 203.433 110.922 203.31 110.591C203.188 110.259 203.139 109.905 203.168 109.553C203.184 109.303 203.258 109.059 203.384 108.841C203.509 108.624 203.684 108.438 203.893 108.299C204.437 107.951 205.164 107.95 205.904 108.276L205.876 102.345L206.472 102.342L206.505 109.314L206.046 109.025C205.513 108.691 204.753 108.456 204.215 108.801C204.082 108.892 203.972 109.012 203.894 109.153C203.815 109.293 203.77 109.45 203.762 109.61C203.742 109.873 203.778 110.136 203.869 110.383C203.96 110.63 204.103 110.854 204.289 111.04C204.947 111.669 205.907 111.865 207.002 112.041L206.908 112.629C206.326 112.552 205.752 112.423 205.193 112.244Z" fill="#2F2E41"/>
<path d="M199.732 102.046L199.654 102.637L202.837 103.057L202.915 102.467L199.732 102.046Z" fill="#2F2E41"/>
<path d="M209.777 103.371L209.699 103.962L212.882 104.382L212.96 103.791L209.777 103.371Z" fill="#2F2E41"/>
<path d="M223.333 172.254H200.482C199.916 172.253 199.366 172.063 198.921 171.715C198.475 171.366 198.159 170.878 198.022 170.33C197.954 170.028 197.943 169.717 197.989 169.412C197.989 169.412 202.452 144.362 204.66 132.331C204.982 130.577 205.909 128.992 207.28 127.851C208.651 126.71 210.378 126.085 212.162 126.085C216.534 126.085 220.727 127.821 223.819 130.911C226.91 134 228.647 138.19 228.647 142.56V166.943C228.647 167.64 228.509 168.331 228.242 168.975C227.975 169.62 227.584 170.205 227.09 170.698C226.597 171.191 226.011 171.583 225.366 171.849C224.722 172.116 224.031 172.254 223.333 172.254Z" fill="#2F2E41"/>
<path d="M218.926 168.944C218.759 169.278 218.498 169.557 218.176 169.747C217.854 169.937 217.484 170.03 217.11 170.015L212.715 169.83C212.461 169.819 212.211 169.758 211.981 169.651C211.75 169.544 211.542 169.393 211.37 169.205C211.198 169.018 211.065 168.799 210.977 168.56C210.89 168.321 210.85 168.068 210.861 167.814L212.312 133.401C212.334 132.859 212.464 132.326 212.693 131.834C212.922 131.342 213.245 130.899 213.645 130.532C214.045 130.164 214.514 129.879 215.024 129.693C215.534 129.506 216.076 129.422 216.619 129.445C217.161 129.468 217.694 129.597 218.187 129.826C218.68 130.055 219.123 130.378 219.49 130.778C219.858 131.177 220.143 131.646 220.33 132.155C220.516 132.665 220.601 133.207 220.578 133.749L219.127 168.162C219.116 168.434 219.047 168.7 218.926 168.944Z" fill="#00A7C7"/>
<path d="M221.176 159.819C221.009 160.154 220.749 160.433 220.427 160.623C220.105 160.813 219.735 160.906 219.361 160.89L211.854 160.574C211.341 160.552 210.857 160.327 210.51 159.949C210.162 159.571 209.979 159.071 210 158.558L211.191 130.301C211.201 130.047 211.262 129.797 211.369 129.567C211.476 129.336 211.628 129.129 211.815 128.957C212.003 128.785 212.222 128.651 212.461 128.564C212.7 128.477 212.954 128.437 213.208 128.448L220.715 128.764C220.969 128.775 221.219 128.835 221.449 128.942C221.68 129.049 221.888 129.201 222.06 129.388C222.232 129.575 222.365 129.795 222.453 130.033C222.54 130.272 222.58 130.526 222.569 130.78L221.378 159.037C221.367 159.309 221.298 159.576 221.176 159.819Z" fill="#2F2E41"/>
<path d="M212.575 97.1897C209.296 98.4819 204.342 99.8554 202.181 96.0192C201.759 95.2351 201.509 94.3702 201.447 93.482C201.386 92.5939 201.515 91.7029 201.825 90.8683C202.478 89.0584 203.866 87.5673 205.449 86.5136C208.414 84.5399 212.165 84.0026 215.617 84.7655C217.353 85.1432 219.001 85.8507 220.47 86.8495C222.14 87.9937 223.316 89.5383 224.498 91.1547C225.706 92.8073 227.074 94.474 229.06 95.198C230.684 95.79 232.72 95.4878 233.868 94.1104C234.136 93.7888 234.342 93.4199 234.475 93.0228C234.647 92.5166 233.846 92.2993 233.675 92.8024C233.071 94.5751 230.849 94.9724 229.281 94.3985C227.21 93.641 225.901 91.673 224.659 89.974C223.472 88.3497 222.159 86.9198 220.444 85.8424C218.903 84.881 217.196 84.2149 215.41 83.8782C211.815 83.1948 207.944 83.8005 204.898 85.8873C203.219 86.9859 201.904 88.557 201.118 90.4021C200.42 92.148 200.438 94.0981 201.168 95.8309C201.534 96.6945 202.106 97.4556 202.833 98.0481C203.561 98.6407 204.422 99.0468 205.343 99.2311C207.351 99.6379 209.438 99.1699 211.345 98.5249C211.833 98.3596 212.316 98.1783 212.796 97.9892C213.287 97.7957 213.073 96.9936 212.575 97.1897Z" fill="#2F2E41"/>
<path d="M13.3082 0H117.373C120.901 0.00397043 124.284 1.40649 126.779 3.89986C129.274 6.39323 130.677 9.77383 130.681 13.3V70.1963C130.677 73.7225 129.274 77.1031 126.779 79.5965C124.284 82.0898 120.901 83.4923 117.373 83.4963H13.3082C9.77985 83.4923 6.39717 82.0898 3.90226 79.5965C1.40735 77.1031 0.00396483 73.7225 0 70.1963V13.3C0.00396409 9.77383 1.40735 6.39323 3.90226 3.89986C6.39717 1.40649 9.77985 0.00397043 13.3082 0Z" fill="#F2F2F2"/>
<path d="M13.309 3.82878H117.374C119.886 3.83159 122.295 4.83035 124.072 6.60594C125.849 8.38152 126.848 10.7889 126.851 13.3V70.1963C126.848 72.7074 125.849 75.1148 124.072 76.8904C122.295 78.666 119.886 79.6647 117.374 79.6675H13.309C10.7964 79.6647 8.38753 78.6659 6.61087 76.8903C4.83421 75.1148 3.83485 72.7074 3.83203 70.1963V13.3C3.83484 10.7889 4.83421 8.38156 6.61087 6.60598C8.38753 4.83039 10.7964 3.83162 13.309 3.82878Z" fill="white"/>
<path d="M14.3226 103.867C14.0086 103.866 13.6978 103.803 13.4082 103.682C12.9758 103.509 12.6059 103.209 12.347 102.821C12.0881 102.434 11.9522 101.978 11.9572 101.512V81.8434L38.1954 80.9612L15.9697 103.173C15.7548 103.392 15.4985 103.566 15.2158 103.685C14.9331 103.804 14.6295 103.866 14.3226 103.867Z" fill="#F2F2F2"/>
<path d="M104.34 17.981H26.0888C22.9558 17.981 20.416 20.5192 20.416 23.6502V23.6502C20.416 26.7812 22.9558 29.3194 26.0888 29.3194H104.34C107.473 29.3194 110.013 26.7812 110.013 23.6502C110.013 20.5192 107.473 17.981 104.34 17.981Z" fill="#F2F2F2"/>
<path d="M104.467 36.0789H26.2157C23.0827 36.0789 20.543 38.6171 20.543 41.7482V41.7482C20.543 44.8792 23.0827 47.4174 26.2157 47.4174H104.467C107.6 47.4174 110.14 44.8792 110.14 41.7482C110.14 38.6171 107.6 36.0789 104.467 36.0789Z" fill="#F2F2F2"/>
<path d="M104.592 54.1769H26.3407C23.2077 54.1769 20.668 56.7151 20.668 59.8461V59.8461C20.668 62.9771 23.2077 65.5153 26.3407 65.5153H104.592C107.725 65.5153 110.265 62.9771 110.265 59.8461C110.265 56.7151 107.725 54.1769 104.592 54.1769Z" fill="#F2F2F2"/>
<path d="M177.635 29.0181H73.5699C70.0416 29.022 66.6589 30.4246 64.164 32.9179C61.6691 35.4113 60.2657 38.7919 60.2617 42.3181V99.2144C60.2657 102.741 61.6691 106.121 64.164 108.615C66.6589 111.108 70.0416 112.51 73.5699 112.514H177.635C181.163 112.51 184.546 111.108 187.041 108.615C189.536 106.121 190.939 102.741 190.943 99.2144V42.3181C190.939 38.7919 189.536 35.4113 187.041 32.9179C184.546 30.4246 181.163 29.022 177.635 29.0181Z" fill="#E6E6E6"/>
<path d="M177.634 32.8468H73.5689C71.0563 32.8497 68.6474 33.8484 66.8707 35.624C65.094 37.3996 64.0946 39.807 64.0918 42.3181V99.2144C64.0946 101.725 65.094 104.133 66.8707 105.908C68.6474 107.684 71.0563 108.683 73.5689 108.686H177.634C180.146 108.683 182.555 107.684 184.332 105.908C186.109 104.133 187.108 101.725 187.111 99.2144V42.3181C187.108 39.807 186.109 37.3996 184.332 35.624C182.555 33.8485 180.146 32.8497 177.634 32.8468Z" fill="white"/>
<path d="M169.718 132.191L147.492 109.979L173.73 110.861V130.53C173.735 130.996 173.599 131.452 173.341 131.839C173.082 132.227 172.712 132.527 172.279 132.7C171.99 132.821 171.679 132.884 171.365 132.885C171.058 132.884 170.755 132.822 170.472 132.703C170.189 132.584 169.933 132.41 169.718 132.191Z" fill="#E6E6E6"/>
<path d="M102.649 77.9517C106.62 77.9517 109.839 74.7346 109.839 70.7662C109.839 66.7978 106.62 63.5808 102.649 63.5808C98.678 63.5808 95.459 66.7978 95.459 70.7662C95.459 74.7346 98.678 77.9517 102.649 77.9517Z" fill="#00A7C7"/>
<path d="M125.602 77.9517C129.573 77.9517 132.792 74.7346 132.792 70.7662C132.792 66.7978 129.573 63.5808 125.602 63.5808C121.631 63.5808 118.412 66.7978 118.412 70.7662C118.412 74.7346 121.631 77.9517 125.602 77.9517Z" fill="#00A7C7"/>
<path d="M148.555 77.9517C152.526 77.9517 155.745 74.7346 155.745 70.7662C155.745 66.7978 152.526 63.5808 148.555 63.5808C144.584 63.5808 141.365 66.7978 141.365 70.7662C141.365 74.7346 144.584 77.9517 148.555 77.9517Z" fill="#00A7C7"/>
</g>
<defs>
<clipPath id="clip0_10629_21210">
<rect width="234.5" height="201" fill="white"/>
</clipPath>
</defs>
</svg>
